<?xml version="1.0" encoding="UTF-8" standalone="no"?>
<svg width="231px" height="110px" viewBox="0 0 231 110" version="1.1" xmlns="http://www.w3.org/2000/svg"
     xmlns:xlink="http://www.w3.org/1999/xlink">
    <!-- Generator: Sketch 39.1 (31720) - http://www.bohemiancoding.com/sketch -->
    <title>MTB_Horizontal_white</title>
    <desc>Created with Sketch.</desc>
    <defs></defs>
    <g id="Page-1" stroke="none" stroke-width="1" fill="none" fill-rule="evenodd">
        <g id="MTB_Horizontal_white">
            <g id="Logo" transform="translate(0.000000, -1.000000)">
                <g id="Text" transform="translate(119.000000, 23.000000)" fill="#FFFFFF">
                    <path d="M1.3931,0.8629 C2.0441,0.8629 2.6441,1.3639 3.5451,2.3649 L17.9641,17.9849 L32.3321,2.3649 C33.2841,1.3639 33.8341,0.8629 34.4851,0.8629 C35.3361,0.8629 35.6861,1.5639 35.6861,2.7649 L35.6861,35.1069 C35.6861,36.0089 35.2861,36.4089 34.3851,36.4089 L28.3271,36.4089 C27.4261,36.4089 26.9761,36.0089 26.9761,35.1069 L26.9761,19.9879 L19.8161,28.1479 C18.9151,29.1489 18.4651,29.4999 17.9141,29.4999 C17.4141,29.4999 16.9631,29.1999 16.0611,28.1479 L8.9021,19.9879 L8.9021,35.1069 C8.9021,36.0089 8.5021,36.4089 7.5511,36.4089 L1.4931,36.4089 C0.5921,36.4089 0.1911,36.0089 0.1911,35.1069 L0.1911,2.7649 C0.1911,1.5639 0.5921,0.8629 1.3931,0.8629"
                          id="Fill-8"></path>
                    <path d="M49.3994,9.3746 L41.4894,9.3746 C40.5874,9.3746 40.1874,8.9736 40.1874,8.0726 L40.1874,2.6656 C40.1874,1.7646 40.5874,1.3636 41.4894,1.3636 L67.5224,1.3636 C68.4234,1.3636 68.8244,1.7646 68.8244,2.6656 L68.8244,8.0726 C68.8244,8.9736 68.4234,9.3746 67.5224,9.3746 L59.6124,9.3746 C59.0614,9.3746 58.8614,9.5746 58.8614,10.1256 L58.8614,35.1066 C58.8614,36.0086 58.4614,36.4086 57.5594,36.4086 L51.4524,36.4086 C50.5504,36.4086 50.1504,36.0086 50.1504,35.1066 L50.1504,10.1256 C50.1504,9.5746 49.9504,9.3746 49.3994,9.3746"
                          id="Fill-10"></path>
                    <path d="M93.1514,25.6451 C93.1514,23.4421 91.3994,22.5411 87.8944,22.5411 L82.7884,22.5411 C82.1874,22.5411 82.0374,22.6911 82.0374,23.2911 L82.0374,28.0481 C82.0374,28.5991 82.1874,28.7991 82.7884,28.7991 L87.8944,28.7991 C91.5994,28.7991 93.1514,27.8481 93.1514,25.6451 M92.1504,11.9271 C92.1504,9.7751 90.6484,8.9731 87.2444,8.9731 L82.7884,8.9731 C82.1874,8.9731 82.0374,9.1731 82.0374,9.7241 L82.0374,14.1801 C82.0374,14.7311 82.1874,14.9311 82.7884,14.9311 L87.2444,14.9311 C90.6984,14.9311 92.1504,14.0301 92.1504,11.9271 M74.6284,1.3641 L87.7444,1.3641 C96.1554,1.3641 101.0614,4.0171 101.0614,11.1261 C101.0614,14.6811 99.2094,17.0341 96.7064,18.2361 C100.0104,19.2371 102.1634,22.0411 102.1634,25.6951 C102.1634,33.3551 96.6064,36.4091 87.8944,36.4091 L74.6284,36.4091 C73.7264,36.4091 73.3264,36.0081 73.3264,35.1071 L73.3264,2.6661 C73.3264,1.7641 73.7264,1.3641 74.6284,1.3641"
                          id="Fill-12"></path>
                    <path d="M9.9422,53.794 C9.9422,52.116 8.8152,51.439 6.5382,51.439 L4.9092,51.439 C4.6102,51.439 4.5342,51.541 4.5342,51.815 L4.5342,55.872 C4.5342,56.146 4.6102,56.246 4.9092,56.246 L6.5382,56.246 C8.7412,56.246 9.9422,55.445 9.9422,53.794 M0.8282,47.433 L6.7132,47.433 C11.8452,47.433 14.4482,49.512 14.4482,53.767 C14.4482,58.051 11.6452,60.252 6.5382,60.252 L4.9092,60.252 C4.6102,60.252 4.5342,60.354 4.5342,60.629 L4.5342,64.31 C4.5342,64.759 4.3342,64.96 3.8582,64.96 L0.8282,64.96 C0.3782,64.96 0.1772,64.759 0.1772,64.31 L0.1772,48.084 C0.1772,47.634 0.3782,47.433 0.8282,47.433"
                          id="Fill-14"></path>
                    <path d="M26.6283,53.4179 C26.6283,51.9659 25.5763,51.4389 23.5743,51.4389 L21.6703,51.4389 C21.3713,51.4389 21.2963,51.5419 21.2963,51.8159 L21.2963,55.0959 C21.2963,55.3969 21.3713,55.4959 21.6703,55.4959 L23.5743,55.4959 C25.6763,55.4959 26.6283,54.7939 26.6283,53.4179 M17.5893,47.4329 L23.7493,47.4329 C28.6823,47.4329 31.1343,49.3879 31.1343,53.1929 C31.1343,55.6959 29.9333,57.3489 28.1073,58.2749 L31.9873,64.1589 C32.1133,64.3339 32.1623,64.4839 32.1623,64.6099 C32.1623,64.8339 31.9613,64.9599 31.5863,64.9599 L28.2063,64.9599 C27.5053,64.9599 27.1803,64.7589 26.8303,64.2099 L23.9983,59.6529 C23.8233,59.3759 23.6733,59.3009 23.3493,59.3009 L21.6703,59.3009 C21.3713,59.3009 21.2963,59.3759 21.2963,59.6769 L21.2963,64.3089 C21.2963,64.7589 21.0943,64.9599 20.6193,64.9599 L17.5893,64.9599 C17.1403,64.9599 16.9383,64.7589 16.9383,64.3089 L16.9383,48.0839 C16.9383,47.6349 17.1403,47.4329 17.5893,47.4329"
                          id="Fill-16"></path>
                    <path d="M47.3561,56.2221 C47.3561,53.1161 45.2291,51.1141 42.4731,51.1141 C39.6951,51.1141 37.6171,53.1431 37.6171,56.2221 C37.6171,59.2761 39.6701,61.2801 42.4491,61.2801 C45.2021,61.2801 47.3561,59.2521 47.3561,56.2221 M42.4731,47.1081 C47.9321,47.1081 51.8621,50.8881 51.8621,56.1981 C51.8621,61.5291 47.9081,65.2861 42.4241,65.2861 C37.0401,65.2861 33.1101,61.5541 33.1101,56.2461 C33.1101,50.9151 37.0671,47.1081 42.4731,47.1081"
                          id="Fill-18"></path>
                    <path d="M54.1135,61.1816 C54.3895,61.1816 54.7645,61.2576 55.2155,61.2576 C56.3175,61.2576 57.0685,60.4046 57.0685,58.7776 L57.0685,48.0836 C57.0685,47.6346 57.2695,47.4326 57.7455,47.4326 L60.7735,47.4326 C61.2235,47.4326 61.4255,47.6346 61.4255,48.0836 L61.4255,59.0776 C61.4255,62.8846 59.8725,65.2636 55.7905,65.2636 C55.1155,65.2636 54.3385,65.2116 53.8625,65.0856 C53.3885,64.9626 53.2875,64.7606 53.3395,64.2606 L53.6135,61.8066 C53.6635,61.3306 53.7885,61.1816 54.1135,61.1816"
                          id="Fill-20"></path>
                    <path d="M66.2031,47.4333 L76.7191,47.4333 C77.1701,47.4333 77.3951,47.6353 77.3951,48.0843 L77.3951,50.7883 C77.3951,51.2643 77.1701,51.4393 76.7191,51.4393 L70.2851,51.4393 C69.9841,51.4393 69.9081,51.5413 69.9081,51.8163 L69.9081,53.7683 C69.9081,54.0693 69.9841,54.1433 70.2851,54.1433 L75.8931,54.1433 C76.3421,54.1433 76.5441,54.3433 76.5441,54.8193 L76.5441,57.4993 C76.5441,57.9503 76.3421,58.1493 75.8931,58.1493 L70.2851,58.1493 C69.9841,58.1493 69.9081,58.2493 69.9081,58.5263 L69.9081,60.5773 C69.9081,60.8543 69.9841,60.9543 70.2851,60.9543 L76.7431,60.9543 C77.1941,60.9543 77.4201,61.1293 77.4201,61.6053 L77.4201,64.3093 C77.4201,64.7583 77.1941,64.9603 76.7431,64.9603 L66.2031,64.9603 C65.7521,64.9603 65.5521,64.7583 65.5521,64.3093 L65.5521,48.0843 C65.5521,47.6353 65.7521,47.4333 66.2031,47.4333"
                          id="Fill-22"></path>
                    <path d="M95.6612,62.3552 C95.6612,62.5312 95.5362,62.7062 95.2842,62.9322 C93.5342,64.3842 91.2542,65.2862 88.7272,65.2862 C83.3932,65.2862 79.4112,61.4802 79.4112,56.2972 C79.4112,50.9892 83.4172,47.1082 88.9262,47.1082 C91.4802,47.1082 93.6822,48.0352 95.3862,49.4632 C95.5852,49.6382 95.6852,49.7882 95.6852,49.9392 C95.6852,50.0872 95.6372,50.2132 95.5112,50.3882 L94.0592,52.4412 C93.9082,52.6672 93.7582,52.7672 93.5832,52.7672 C93.4322,52.7672 93.2572,52.6922 93.0832,52.5662 C91.9322,51.7402 90.5292,51.1142 88.9022,51.1142 C86.0222,51.1142 83.9202,53.1682 83.9202,56.2222 C83.9202,59.1762 85.9982,61.2802 88.9022,61.2802 C90.5792,61.2802 91.9562,60.7042 93.1332,59.8022 C93.3322,59.6522 93.4842,59.5772 93.6332,59.5772 C93.8082,59.5772 93.9342,59.6762 94.0832,59.8782 L95.5112,61.9292 C95.6122,62.0812 95.6612,62.2302 95.6612,62.3552"
                          id="Fill-24"></path>
                    <path d="M101.6872,51.4394 L97.7312,51.4394 C97.2802,51.4394 97.0792,51.2404 97.0792,50.7884 L97.0792,48.0844 C97.0792,47.6344 97.2802,47.4334 97.7312,47.4334 L110.7512,47.4334 C111.2022,47.4334 111.4012,47.6344 111.4012,48.0844 L111.4012,50.7884 C111.4012,51.2404 111.2022,51.4394 110.7512,51.4394 L106.7952,51.4394 C106.5192,51.4394 106.4182,51.5414 106.4182,51.8164 L106.4182,64.3094 C106.4182,64.7584 106.2202,64.9604 105.7692,64.9604 L102.7132,64.9604 C102.2632,64.9604 102.0642,64.7584 102.0642,64.3094 L102.0642,51.8164 C102.0642,51.5414 101.9612,51.4394 101.6872,51.4394"
                          id="Fill-26"></path>
                </g>
                <g id="Mark">
                    <path d="M97.204,36.8347 C97.204,32.0367 94.599,27.5647 90.406,25.1657 L57.002,6.0527 C54.938,4.8717 52.587,4.2477 50.204,4.2477 C47.821,4.2477 45.47,4.8717 43.406,6.0527 L10.002,25.1657 C5.809,27.5647 3.204,32.0367 3.204,36.8347 L3.204,75.0607 C3.204,79.8587 5.809,84.3307 10.002,86.7297 L43.406,105.8427 C45.47,107.0237 47.821,107.6477 50.204,107.6477 C52.587,107.6477 54.938,107.0237 57.002,105.8427 L90.406,86.7297 C92.592,85.4787 94.34,83.6627 95.519,81.5327 C96.602,79.5767 97.204,77.3577 97.204,75.0607 L97.204,36.8347 Z"
                          id="Fill-1" fill="#FEFEFE"></path>
                    <path d="M10.4461,28.7705 L45.9821,8.4375 C47.2251,7.7265 48.6131,7.3705 50.0001,7.3705 C51.3871,7.3705 52.7751,7.7265 54.0181,8.4375 L89.5541,28.7705 C92.0401,30.1935 93.5721,32.8215 93.5721,35.6675 L93.5721,47.6775 C87.0201,41.6845 63.5941,20.4475 63.5941,20.4475 C63.3931,20.2635 63.1251,20.1925 62.9181,20.1925 C62.7111,20.1925 62.4431,20.2645 62.2431,20.4475 L32.5851,47.3815 C32.1881,47.7495 31.6291,47.7475 31.2311,47.4355 C30.8741,47.1545 30.7091,46.5825 31.0281,46.0785 L37.4271,36.4755 C37.6571,36.1305 37.6241,35.5765 37.2611,35.2135 L29.7661,27.9915 C29.6141,27.8445 29.3801,27.7005 29.0531,27.7005 C28.7581,27.7005 28.5221,27.8245 28.3721,27.9595 C28.3721,27.9595 11.4891,43.1085 6.4281,47.6775 L6.4281,35.6675 C6.4281,32.8215 7.9601,30.1935 10.4461,28.7705 L10.4461,28.7705 Z M100.0001,35.6675 C100.0001,30.5625 97.2291,25.8055 92.7681,23.2535 L57.2321,2.9205 C55.0361,1.6635 52.5351,0.9995 50.0001,0.9995 C47.4651,0.9995 44.9641,1.6635 42.7681,2.9205 L7.2321,23.2535 C2.7711,25.8055 0.0001,30.5625 0.0001,35.6675 L0.0001,76.3325 C0.0001,81.4375 2.7711,86.1945 7.2321,88.7465 L42.7681,109.0795 C44.9641,110.3355 47.4641,110.9995 50.0001,110.9995 C52.5351,110.9995 55.0361,110.3355 57.2321,109.0795 L92.7681,88.7465 C95.0931,87.4165 96.9541,85.4835 98.2071,83.2185 C99.3591,81.1375 100.0001,78.7765 100.0001,76.3325 L100.0001,35.6675 Z"
                          id="Fill-3" fill="#8F181B"></path>
                    <path d="M82.7594,73.725 C82.5804,73.095 81.9244,72.729 81.2944,72.909 C81.1684,72.944 81.0574,73.003 80.9554,73.072 L80.9524,73.061 C80.9524,73.061 80.6664,73.247 80.6214,73.181 C80.6144,73.171 80.3444,72.857 79.9034,72.346 C80.1874,72.059 80.5384,71.832 80.9544,71.714 C82.2444,71.347 83.5874,72.095 83.9544,73.385 C84.3204,74.675 83.5724,76.018 82.2824,76.385 C81.3134,76.66 80.3154,76.306 79.7224,75.567 L80.1434,75.02 L80.8984,74.987 C81.1854,75.207 81.5674,75.297 81.9434,75.19 C82.5734,75.011 82.9384,74.355 82.7594,73.725 L82.7594,73.725 Z M84.2934,83.455 C79.0984,84.933 73.6894,81.919 72.2124,76.724 C71.3244,73.6 72.0684,70.404 73.9264,68.027 L78.2604,72.936 L77.7084,73.578 C77.5234,73.716 77.6274,73.982 77.6274,73.982 L77.8124,74.768 L78.6914,75.404 L78.5064,76.283 C78.8994,76.595 79.0384,76.456 79.0384,76.456 L79.3344,76.071 C80.0884,76.922 81.2874,77.318 82.4534,76.986 C84.0754,76.525 85.0164,74.836 84.5554,73.214 C84.0944,71.592 82.4054,70.651 80.7834,71.112 C80.2774,71.256 79.8384,71.519 79.4874,71.862 C78.4224,70.628 76.7494,68.693 75.0944,66.778 C76.1674,65.813 77.4634,65.064 78.9444,64.643 C84.1394,63.166 89.5474,66.18 91.0244,71.375 C92.5014,76.57 89.4874,81.978 84.2934,83.455 L84.2934,83.455 Z M65.3624,59.099 L62.5634,61.788 L62.2454,61.132 C62.2454,61.132 59.9694,58.204 58.2334,55.783 L58.1754,55.554 L58.2344,55.561 C58.2194,55.557 58.1974,55.547 58.1704,55.534 L57.4864,52.822 C58.0424,52.342 58.5704,51.905 58.5994,51.879 C58.6014,51.876 58.6104,51.872 58.6134,51.869 C60.1834,53.254 62.1384,53.896 63.8274,55.28 C63.8274,55.28 64.0154,55.748 64.5624,56.349 C64.4254,56.205 64.2304,56.006 64.6444,56.441 C64.6524,56.449 64.6554,56.45 64.6554,56.45 C64.6744,56.467 64.6984,56.487 64.7214,56.506 L64.3494,56.912 L65.6174,58.349 L65.5934,58.538 C65.6484,58.731 65.3624,59.099 65.3624,59.099 L65.3624,59.099 Z M65.2134,62.424 L62.1414,73.315 L62.1334,73.263 L62.3554,70.667 L62.4044,69.236 C62.3884,68.937 62.3974,68.598 62.4044,68.259 L62.5614,67.166 C62.5964,66.919 62.6154,66.609 62.7214,66.341 C62.8744,65.854 63.1384,65.232 63.0334,64.894 L62.8534,64.311 C62.7694,64.169 62.6064,63.882 62.5864,63.822 C62.5734,63.781 62.5664,63.73 62.5584,63.677 C62.6094,63.615 62.6474,63.571 62.6474,63.571 L62.8544,63.377 C63.0044,63.304 63.1464,63.199 63.1964,63.091 L63.1854,63.068 L64.1704,62.148 C64.7604,61.381 65.1004,61.753 65.1004,61.753 C65.2894,61.96 65.2134,62.424 65.2134,62.424 L65.2134,62.424 Z M63.3894,80.405 C62.4914,80.464 61.4584,80.559 60.6724,80.636 C60.9814,80.437 61.2244,80.213 61.4184,79.991 C61.4814,79.983 61.5474,79.98 61.6124,79.976 C61.7804,79.977 61.9514,79.979 62.1254,79.981 C62.1374,79.982 62.1474,79.981 62.1584,79.983 C62.6604,80.041 63.0734,80.224 63.3894,80.405 L63.3894,80.405 Z M59.4954,77.496 L59.4974,77.799 C59.4634,77.919 59.4234,78.057 59.3834,78.212 C59.3324,78.41 59.2144,78.723 59.1394,78.981 C58.9694,78.942 58.8924,78.864 58.8924,78.864 C58.1594,78.395 56.2524,75.629 56.2524,75.629 L55.6424,74.393 L57.2304,72.745 L58.2924,71.166 L58.4494,71.177 L58.4564,71.217 L58.8184,72.384 L59.1984,74.22 C59.3414,75.05 59.4524,75.891 59.5604,76.732 C59.5714,76.763 59.4854,76.859 59.5054,76.919 C59.4934,77.126 59.5954,77.329 59.4954,77.496 L59.4954,77.496 Z M55.3984,84.562 C55.3874,84.258 55.3644,83.954 55.3274,83.649 L55.3844,83.64 C55.3844,83.64 55.6694,83.592 56.0294,83.389 C56.2684,83.553 56.5414,83.669 56.8324,83.736 L55.3984,84.562 Z M46.4814,94.319 C41.3374,95.782 35.9814,92.797 34.5194,87.653 C33.0564,82.509 36.0404,77.154 41.1844,75.691 C43.7194,74.971 46.3024,75.333 48.4484,76.498 C48.3284,76.592 48.1294,76.723 47.9014,76.891 C47.6664,77.064 47.1714,77.336 46.9954,77.515 C46.8194,77.694 46.5014,78.016 46.9254,78.616 C47.2064,79.013 47.6334,79.285 48.1004,79.641 L45.5134,81.933 C45.2944,81.736 44.7624,81.295 44.6554,81.324 C44.5284,81.358 43.8454,81.855 43.8454,81.855 C43.8454,81.855 43.2214,81.416 43.0484,81.462 C42.8744,81.509 42.6664,81.659 42.6664,81.855 C42.6664,82.052 43.0134,82.372 43.0134,82.372 C41.6674,82.755 40.8874,84.156 41.2694,85.501 C41.5854,86.613 42.5984,87.328 43.6994,87.33 C43.7034,87.394 43.7114,87.457 43.7294,87.521 C43.8574,87.967 44.3144,88.228 44.7624,88.118 L44.8264,89.199 C44.5134,89.331 44.3304,89.658 44.3804,89.994 L43.8344,90.191 L43.8924,90.376 L44.9164,90.694 L44.9204,90.754 C44.9254,90.84 44.9744,90.918 45.0514,90.959 C45.0884,90.979 45.1284,90.989 45.1694,90.989 C45.2124,90.989 45.2554,90.977 45.2944,90.955 L53.4314,86.271 C52.9404,89.982 50.3114,93.23 46.4814,94.319 L46.4814,94.319 Z M54.2144,79.891 C53.7334,78.911 53.1254,78.022 52.4144,77.238 L54.5114,75.485 L56.3974,78.233 L55.9984,79.332 L54.2144,79.891 Z M54.8434,81.445 C54.7214,81.068 54.5824,80.703 54.4274,80.348 L55.5294,80.003 C55.2144,80.394 55.0224,80.885 55.0154,81.424 L54.8434,81.445 Z M49.8354,81.785 C49.8504,81.816 49.8644,81.844 49.8754,81.863 C49.9044,81.91 49.9454,81.962 49.9904,82.015 C49.9724,82.038 49.5534,82.619 50.1774,82.694 C50.2744,82.706 50.4794,82.706 50.7554,82.697 C50.9594,82.837 51.2404,83.027 51.3364,83.077 L46.1224,84.067 C46.0104,83.701 45.8164,83.386 45.5734,83.12 L49.8354,81.785 Z M48.8284,80.272 C49.2154,80.669 49.4544,81.041 49.6114,81.332 L46.2584,82.381 L48.8074,80.252 C48.8144,80.259 48.8214,80.265 48.8284,80.272 L48.8284,80.272 Z M52.8924,81.607 C52.6834,81.434 52.5114,81.32 52.5114,81.32 C52.5114,81.32 52.3734,81.194 52.2534,81.028 L52.6004,80.92 C52.7044,81.144 52.8044,81.372 52.8924,81.607 L52.8924,81.607 Z M52.3834,80.464 L52.0404,80.571 C51.9634,80.342 51.8944,80.099 51.8994,79.908 C51.9034,79.78 51.8754,79.691 51.8664,79.604 C52.0514,79.88 52.2254,80.166 52.3834,80.464 L52.3834,80.464 Z M53.4844,85.664 L45.8374,90.066 C45.8694,89.942 45.8724,89.811 45.8354,89.68 C45.8124,89.6 45.7754,89.53 45.7314,89.465 L46.2734,87.382 C46.4584,86.977 46.1584,86.804 46.1584,86.804 L45.6124,86.47 C45.9484,86.084 46.1634,85.603 46.2214,85.089 L53.4484,83.946 C53.5124,84.523 53.5234,85.097 53.4844,85.664 L53.4844,85.664 Z M51.4684,69.433 L50.6404,68.444 L50.7954,68.348 L50.5514,67.948 L50.2634,68.115 L49.2794,66.69 L49.1074,66.717 L46.1244,62.458 L47.0314,61.523 C47.7754,60.66 48.2754,60.492 48.2754,60.492 C48.6174,60.35 49.1994,60.178 49.3544,60.134 L53.9264,66.71 C54.0334,66.813 54.5134,67.372 54.7354,67.497 C54.8294,67.55 55.5354,67.404 55.5354,67.404 C55.6614,67.478 55.8704,67.926 55.8164,68.02 C55.7614,68.117 55.7484,68.068 55.7304,68.097 C55.3774,68.359 54.9284,68.564 54.5384,68.888 C54.4704,68.942 54.3544,69.036 54.2224,69.146 L53.3514,69.549 C51.9774,70.304 51.4684,69.433 51.4684,69.433 L51.4684,69.433 Z M92.9484,70.828 C91.1694,64.571 84.6544,60.94 78.3974,62.72 C76.5514,63.244 74.9374,64.183 73.6194,65.404 C72.8764,64.514 71.7184,63.13 71.2704,62.603 C71.1924,62.511 71.3354,62.23 71.2634,62.145 C70.6144,61.382 70.2104,60.906 70.2104,60.906 L69.5874,60.458 C69.5874,60.458 69.4464,60.361 69.2094,60.35 L66.8644,57.604 L66.6054,57.74 C66.5644,57.652 66.5294,57.58 66.5104,57.548 C66.3114,57.214 66.9654,57.315 66.9654,57.315 L66.9844,57.279 C67.1914,57.264 67.3184,57.171 67.1794,56.93 L67.2774,56.754 C67.6384,56.692 67.8834,56.497 67.9344,56.431 C68.1574,56.208 67.8074,54.649 67.5534,54.554 C67.5854,54.618 66.8214,54.14 65.8674,53.918 C64.5314,53.473 63.4214,52.224 62.6904,51.356 C62.1504,50.713 61.5954,50.041 61.1494,49.315 C61.9544,48.097 63.2594,46.001 63.7474,45.298 C64.3614,44.414 63.8404,42.858 63.8194,41.85 C63.8184,41.772 63.9124,41.584 63.8564,41.443 L63.7874,41.377 C63.9784,41.128 64.6304,40.581 65.5974,40.965 C66.0604,41.149 66.4844,41.145 66.8884,41.027 C67.2544,40.921 67.2184,40.656 67.3664,40.216 C67.3974,40.046 67.5334,39.968 67.5854,39.873 C67.6254,39.741 67.6204,39.585 67.5864,39.476 L67.7334,39.433 C68.0994,39.327 67.8424,39.122 67.9764,38.765 C68.1064,38.809 68.2754,38.838 68.3854,38.806 C68.4584,38.786 68.4894,38.616 68.4934,38.498 L68.2774,37.764 C68.2464,37.654 68.2094,37.666 68.2004,37.628 C68.2784,37.487 68.3194,37.357 68.3224,37.237 C68.3314,36.995 68.3234,36.56 68.2924,36.451 C68.2724,36.378 68.1514,36.372 68.0934,36.309 C68.6384,36.272 69.6184,36.225 69.6894,36.203 C69.6894,36.203 70.0244,35.987 69.9934,35.877 C69.9594,35.768 69.2544,35.257 69.0014,34.934 C68.6794,34.513 68.5304,34 68.2924,33.591 C67.8844,32.876 66.9074,31.849 65.8644,31.674 C64.4004,31.424 62.8564,31.715 61.5014,32.107 C61.4264,32.13 60.6814,32.271 60.7004,32.501 C60.7134,32.659 60.9714,32.819 61.1114,32.818 C60.8264,32.821 60.5874,32.895 60.6644,33.06 C61.0954,34.034 60.5014,33.589 60.7394,34.395 C60.7704,34.505 61.3164,35.419 61.3354,35.491 C61.4444,35.857 61.3834,36.193 61.4634,36.606 C61.4744,36.643 61.5564,36.877 61.5344,36.983 C61.4044,37.603 60.9934,38.142 60.7104,38.433 L60.5964,38.324 C60.3994,38.282 60.1704,38.478 60.0604,38.508 C59.9874,38.527 58.5394,39.164 58.4294,39.194 C58.3544,39.214 57.4434,38.693 56.7154,38.776 C56.7154,38.776 55.7424,38.974 54.2654,40.019 C54.2024,40.064 51.7094,41.728 51.0144,42.304 C50.4364,42.784 48.5214,45.266 48.6294,45.945 C48.7384,46.63 49.6484,46.937 49.6744,46.918 C49.1944,47.257 47.9714,49.16 47.2704,51.078 C47.2064,51.256 47.4894,51.295 47.7144,51.39 C47.5234,51.839 47.1804,52.327 47.0714,52.792 C47.0314,52.941 46.9984,53.094 46.9704,53.249 C46.1604,54.668 46.0044,56.697 48.5984,59.158 L48.6724,59.153 L48.9794,59.595 C48.3304,59.72 47.6564,59.965 47.6564,59.965 C45.4654,60.874 44.4744,61.052 44.4744,61.052 C41.8884,61.396 41.4544,61.884 41.4544,61.884 C40.9304,62.424 41.5804,62.787 41.5804,62.787 L43.3154,62.476 C44.0894,63.089 44.5264,63.069 44.5264,63.069 L45.2674,62.833 L49.5214,68.632 C49.0074,69.116 49.3384,69.179 49.3384,69.179 C49.3384,69.179 49.7824,69.183 49.8614,69.186 C49.9014,69.188 50.9094,70.562 51.8974,71.922 L51.4604,72.907 L50.8164,73.837 L50.7104,74.03 C50.4694,74.346 50.2134,74.82 49.9734,75.194 C47.2944,73.519 43.9454,72.94 40.6674,73.872 C34.5184,75.62 30.9514,82.022 32.6994,88.171 C34.4484,94.319 40.8494,97.887 46.9984,96.138 C52.0474,94.703 55.3534,90.129 55.4074,85.134 L57.7894,83.763 C58.7754,83.578 59.5384,82.771 59.6714,81.765 L65.5134,81.084 C65.5134,81.084 65.5754,80.999 65.6074,80.886 C65.7734,80.871 65.9214,80.854 65.9714,80.841 C66.1054,80.806 66.7054,80.681 67.0344,80.43 C67.3634,80.18 68.0004,79.563 67.5024,79.078 C67.0044,78.592 65.7544,78.741 65.7544,78.741 C65.7544,78.741 65.6564,78.737 65.5264,78.714 C65.0474,78.46 64.6224,78.189 64.3984,78.041 C64.3954,78.037 64.3914,78.034 64.3884,78.031 C64.2354,77.83 64.0884,77.829 63.9414,77.583 C63.7714,77.301 63.6694,77.298 63.6874,77.118 C63.7044,76.937 63.6184,76.712 63.4474,76.976 C63.2754,77.242 63.3234,77.222 63.1794,77.202 C63.0984,77.191 63.1014,77.188 62.9354,77.062 C62.9304,76.958 62.8694,76.764 62.7904,76.51 L67.0894,62.334 C67.3214,61.803 67.5814,61.607 67.7984,61.552 L67.8134,61.581 C67.8134,61.581 68.0984,62.233 68.3494,62.292 C68.3494,62.292 69.2964,62.596 69.9564,63.451 L70.2964,63.35 L72.7214,66.333 C70.2094,69.234 69.1604,73.303 70.2884,77.271 C72.0684,83.528 78.5824,87.158 84.8404,85.379 C91.0974,83.6 94.7274,77.085 92.9484,70.828 L92.9484,70.828 Z"
                          id="Fill-6" fill="#FEFEFE"></path>
                </g>
            </g>
        </g>
    </g>
</svg>